<svg width="22" height="22" viewBox="0 0 22 22" fill="none" xmlns="http://www.w3.org/2000/svg">
<path d="M20.9986 1.71265C21.0045 1.62142 20.9917 1.52994 20.961 1.44384C20.9302 1.35775 20.8821 1.27888 20.8197 1.21209C20.7572 1.14531 20.6818 1.09204 20.5979 1.05556C20.5141 1.01908 20.4237 1.00017 20.3322 1H1.66782C1.57635 1.00004 1.48587 1.01886 1.40198 1.0553C1.31808 1.09173 1.24256 1.145 1.18009 1.21181C1.11762 1.27862 1.06954 1.35755 1.03882 1.4437C1.00809 1.52985 0.995389 1.62139 1.00149 1.71265C1.15816 3.89427 2.02401 5.9648 3.467 7.60851C4.91 9.25222 6.85095 10.3789 8.99391 10.8168V19.6136C8.99396 19.7406 9.03017 19.8649 9.09832 19.972C9.16646 20.0791 9.26371 20.1646 9.37868 20.2185C9.49365 20.2723 9.62158 20.2923 9.74748 20.276C9.87339 20.2598 9.99207 20.208 10.0896 20.1268L12.7621 17.8997C12.8374 17.8371 12.898 17.7587 12.9396 17.67C12.9812 17.5813 13.0027 17.4845 13.0026 17.3866V10.8168C15.1463 10.3797 17.0881 9.25339 18.5318 7.60959C19.9755 5.96579 20.8418 3.89481 20.9986 1.71265V1.71265Z" stroke="#008AB4" stroke-width="2" stroke-linecap="round" stroke-linejoin="round"/>
</svg>
